<?xml version="1.0" standalone="no"?>
<!DOCTYPE svg PUBLIC "-//W3C//DTD SVG 20010904//EN"
 "http://www.w3.org/TR/2001/REC-SVG-20010904/DTD/svg10.dtd">
<svg version="1.0" xmlns="http://www.w3.org/2000/svg"
 width="152.000000pt" height="152.000000pt" viewBox="0 0 152.000000 152.000000"
 preserveAspectRatio="xMidYMid meet">

<g transform="translate(0.000000,152.000000) scale(0.100000,-0.100000)"
fill="#000000" stroke="none">
<path d="M678 1146 l-23 -34 -93 -4 c-88 -3 -95 -5 -118 -31 -24 -28 -24 -31
-24 -227 0 -196 0 -199 24 -227 l24 -28 264 -3 c286 -3 319 -1 349 29 18 18
19 34 19 223 0 112 -3 212 -6 221 -7 18 -55 45 -81 45 -10 0 -28 16 -41 35
l-22 35 -125 0 -125 0 -22 -34z m209 -111 c81 -34 117 -97 111 -191 -3 -52 -9
-70 -34 -101 -109 -137 -325 -76 -342 96 -6 62 10 109 51 151 58 59 139 76
214 45z m-352 -17 c3 -13 4 -95 3 -182 -3 -135 -5 -160 -20 -169 -12 -8 -21
-7 -32 2 -13 11 -16 41 -16 186 0 94 3 175 7 178 16 16 53 6 58 -15z"/>
<path d="M741 991 c-41 -22 -81 -85 -81 -129 0 -150 180 -215 274 -99 39 48
43 129 10 174 -52 70 -132 92 -203 54z m140 -18 c5 -5 -9 -7 -33 -5 -53 6
-102 -20 -122 -63 -19 -38 -21 -88 -5 -117 6 -11 8 -22 5 -25 -3 -4 -15 15
-26 40 -17 39 -19 53 -11 85 10 36 49 83 81 95 20 9 100 1 111 -10z m7 -115
c34 -34 -6 -90 -48 -68 -35 19 -20 80 20 80 9 0 21 -5 28 -12z"/>
</g>
</svg>
